<svg width="24" height="24" viewBox="0 0 24 24" fill="none" xmlns="http://www.w3.org/2000/svg">
<path d="M10.8571 10.8571V5C10.8571 4.44771 11.3049 4 11.8571 4H12.1429C12.6951 4 13.1429 4.44772 13.1429 5V10.8571H19C19.5523 10.8571 20 11.3049 20 11.8571V12.1429C20 12.6951 19.5523 13.1429 19 13.1429H13.1429V19C13.1429 19.5523 12.6951 20 12.1429 20H11.8571C11.3049 20 10.8571 19.5523 10.8571 19V13.1429H5C4.44771 13.1429 4 12.6951 4 12.1429V11.8571C4 11.3049 4.44772 10.8571 5 10.8571H10.8571Z" fill="white"/>
</svg>
