<svg width="16" height="16" viewBox="0 0 16 16" fill="none" xmlns="http://www.w3.org/2000/svg">
<path d="M8.00004 1.33341C4.31804 1.33341 1.33337 4.31808 1.33337 8.00008C1.33337 11.6821 4.31804 14.6667 8.00004 14.6667C11.682 14.6667 14.6667 11.6821 14.6667 8.00008C14.6667 4.31808 11.682 1.33341 8.00004 1.33341ZM8.00004 8.66675C7.63185 8.66675 7.33337 8.36827 7.33337 8.00008V5.33341C7.33337 4.96522 7.63185 4.66675 8.00004 4.66675C8.36823 4.66675 8.66671 4.96522 8.66671 5.33341V8.00008C8.66671 8.36827 8.36823 8.66675 8.00004 8.66675ZM8.00004 11.3334C7.63185 11.3334 7.33337 11.0349 7.33337 10.6667C7.33337 10.2986 7.63185 10.0001 8.00004 10.0001C8.36823 10.0001 8.66671 10.2986 8.66671 10.6667C8.66671 11.0349 8.36823 11.3334 8.00004 11.3334Z" fill="#FCC419"/>
</svg>
