<svg width="18" height="19" viewBox="0 0 18 19" fill="none" xmlns="http://www.w3.org/2000/svg">
<path fill-rule="evenodd" clip-rule="evenodd" d="M1.6 2.30002C1.59999 2.18955 1.68954 2.1 1.8 2.1H8.59912C9.04095 2.1 9.39912 1.74183 9.39912 1.3C9.39912 0.858172 9.04095 0.5 8.59912 0.5H1.8C0.805821 0.5 -9.46868e-05 1.30599 8.34415e-09 2.30017L0.001372 16.7004C0.00146672 17.6944 0.807325 18.5002 1.80137 18.5002H16.1991C17.1932 18.5002 17.9991 17.6943 17.9991 16.7002V9.9002C17.9991 9.45837 17.641 9.10019 17.1991 9.10019C16.7573 9.10019 16.3991 9.45837 16.3991 9.9002V16.7002C16.3991 16.8107 16.3096 16.9002 16.1991 16.9002H1.80137C1.69092 16.9002 1.60138 16.8107 1.60137 16.7002L1.6 2.30002ZM10.9992 1.3C10.9992 1.74183 11.3574 2.1 11.7992 2.1H15.2678L7.43353 9.93431C7.12111 10.2467 7.12111 10.7533 7.43353 11.0657C7.74595 11.3781 8.25248 11.3781 8.5649 11.0657L16.3992 3.23137V6.7002C16.3992 7.14202 16.7574 7.5002 17.1992 7.5002C17.641 7.5002 17.9992 7.14202 17.9992 6.7002V1.3C17.9992 0.858172 17.641 0.5 17.1992 0.5H11.7992C11.3574 0.5 10.9992 0.858172 10.9992 1.3Z" fill="#256EF4"/>
</svg>
