<svg width="16" height="16" viewBox="0 0 16 16" fill="none" xmlns="http://www.w3.org/2000/svg">
<path d="M8.00004 14.6666C4.31804 14.6666 1.33337 11.6819 1.33337 7.99992C1.33337 4.31792 4.31804 1.33325 8.00004 1.33325C11.682 1.33325 14.6667 4.31792 14.6667 7.99992C14.6667 11.6819 11.682 14.6666 8.00004 14.6666ZM6.86394 10.1951C7.1243 10.4555 7.54643 10.4555 7.80678 10.1951L11.5774 6.42391C11.8377 6.1636 11.8377 5.74158 11.5774 5.48129C11.3171 5.22097 10.895 5.22098 10.6347 5.48133L7.33537 8.78125L5.92071 7.36659C5.6604 7.10628 5.23835 7.10628 4.97804 7.36659C4.71773 7.6269 4.71773 8.04894 4.97804 8.30925L6.86394 10.1951Z" fill="#37B24D"/>
</svg>
