<svg width="24" height="24" viewBox="0 0 24 24" fill="none" xmlns="http://www.w3.org/2000/svg">
<path d="M6.828 7.95L8.657 9.779C9.04747 10.1695 9.04747 10.8025 8.657 11.193C8.26653 11.5835 7.63347 11.5835 7.243 11.193L3.70711 7.65711C3.31658 7.26658 3.31658 6.63342 3.70711 6.24289L7.243 2.707C7.63346 2.31654 8.26653 2.31653 8.657 2.707C9.04747 3.09747 9.04747 3.73054 8.657 4.121L6.828 5.95H14C16.1217 5.95 18.1566 6.79286 19.6569 8.29315C21.1571 9.79344 22 11.8283 22 13.95C22 16.0717 21.1571 18.1066 19.6569 19.6069C18.1566 21.1071 16.1217 21.95 14 21.95H6C5.44772 21.95 5 21.5023 5 20.95C5 20.3977 5.44772 19.95 6 19.95H14C15.5913 19.95 17.1174 19.3179 18.2426 18.1926C19.3679 17.0674 20 15.5413 20 13.95C20 12.3587 19.3679 10.8326 18.2426 9.70736C17.1174 8.58214 15.5913 7.95 14 7.95H6.828Z" fill="white"/>
</svg>
