<svg width="16" height="16" viewBox="0 0 16 16" fill="none" xmlns="http://www.w3.org/2000/svg">
<path d="M8.00004 14.6668C4.31804 14.6668 1.33337 11.6822 1.33337 8.00016C1.33337 4.31816 4.31804 1.3335 8.00004 1.3335C11.682 1.3335 14.6667 4.31816 14.6667 8.00016C14.6667 11.6822 11.682 14.6668 8.00004 14.6668ZM8.00004 7.0575L6.58611 5.64307C6.32578 5.38264 5.90342 5.38278 5.64304 5.64316C5.38266 5.90354 5.38252 6.3259 5.64295 6.58623L7.05737 8.00016L5.64295 9.41409C5.38252 9.67443 5.38266 10.0968 5.64304 10.3572C5.90342 10.6175 6.32578 10.6177 6.58611 10.3573L8.00004 8.94283L9.41397 10.3573C9.6743 10.6177 10.0967 10.6175 10.357 10.3572C10.6174 10.0968 10.6176 9.67443 10.3571 9.41409L8.94271 8.00016L10.3571 6.58623C10.6176 6.3259 10.6174 5.90354 10.357 5.64316C10.0967 5.38278 9.67431 5.38264 9.41397 5.64307L8.00004 7.0575Z" fill="#F03E3E"/>
</svg>
