<svg width="20" height="20" viewBox="0 0 20 20" fill="none" xmlns="http://www.w3.org/2000/svg">
<path d="M10.0001 8.82178L13.5359 5.28594C13.8613 4.96056 14.3889 4.96056 14.7143 5.28594C15.0397 5.61133 15.0397 6.13889 14.7143 6.46428L11.1784 10.0001L14.7143 13.5359C15.0397 13.8613 15.0397 14.3889 14.7143 14.7143C14.3889 15.0397 13.8613 15.0397 13.5359 14.7143L10.0001 11.1784L6.46428 14.7143C6.13889 15.0397 5.61133 15.0397 5.28594 14.7143C4.96056 14.3889 4.96056 13.8613 5.28594 13.5359L8.82178 10.0001L5.28594 6.46428C4.96056 6.13889 4.96056 5.61133 5.28594 5.28594C5.61133 4.96056 6.13889 4.96056 6.46428 5.28594L10.0001 8.82178Z" fill="#868E96"/>
</svg>
